<svg width="373" height="124" viewBox="0 0 373 124" fill="none" xmlns="http://www.w3.org/2000/svg">
<g filter="url(#filter0_d_7_10)">
<g filter="url(#filter1_b_7_10)">
<path d="M149.01 46.9347C149.37 47.9667 149.73 48.9867 150.09 49.9947C150.45 51.0027 150.798 52.0467 151.134 53.1267C150.942 53.1747 150.762 53.2347 150.594 53.3067C150.45 53.3787 150.282 53.4387 150.09 53.4867C149.634 52.4787 149.19 51.6627 148.758 51.0387C148.35 50.3907 147.942 49.8747 147.534 49.4907C147.006 49.0107 146.382 48.6867 145.662 48.5187C144.942 48.3507 144.234 48.2667 143.538 48.2667C142.146 48.2667 141.234 48.3747 140.802 48.5907C140.322 48.8067 140.082 49.2387 140.082 49.8867V69.0027C140.082 69.6987 140.346 70.1907 140.874 70.4787C141.354 70.7427 142.398 70.8747 144.006 70.8747V72.0267H133.854V70.8747C135.294 70.8747 136.266 70.7547 136.77 70.5147C137.442 70.2027 137.778 69.6987 137.778 69.0027V49.5987C137.778 49.0947 137.586 48.7467 137.202 48.5547C136.842 48.3627 136.11 48.2667 135.006 48.2667C134.166 48.2667 133.302 48.3387 132.414 48.4827C131.55 48.6267 130.806 48.9627 130.182 49.4907C129.918 49.7067 129.666 49.9707 129.426 50.2827C129.186 50.5707 128.91 50.9547 128.598 51.4347C128.406 51.7467 128.226 52.0587 128.058 52.3707C127.89 52.6587 127.71 52.9707 127.518 53.3067C127.374 53.2347 127.23 53.1747 127.086 53.1267C126.966 53.0547 126.834 52.9827 126.69 52.9107C127.05 51.9027 127.41 50.9067 127.77 49.9227C128.13 48.9387 128.49 47.9427 128.85 46.9347H149.01ZM155.391 56.1147C156.831 55.4427 158.487 55.1067 160.359 55.1067C161.871 55.1067 163.095 55.5027 164.031 56.2947C165.039 57.2067 165.543 58.4787 165.543 60.1107V69.4347C165.543 69.5547 165.543 69.6987 165.543 69.8667C165.567 70.0347 165.591 70.2027 165.615 70.3707C165.663 70.5387 165.723 70.6827 165.795 70.8027C165.891 70.9227 165.999 70.9827 166.119 70.9827C166.479 70.9827 166.995 70.7187 167.667 70.1907L168.099 70.7307C167.043 72.0027 166.107 72.6387 165.291 72.6387C164.235 72.6387 163.599 71.9667 163.383 70.6227C161.895 71.9667 159.999 72.6387 157.695 72.6387C156.903 72.6387 156.183 72.5547 155.535 72.3867C154.911 72.2187 154.383 71.9547 153.951 71.5947C153.063 70.8507 152.619 69.8067 152.619 68.4627C152.619 67.4547 152.955 66.5547 153.627 65.7627C154.323 64.9467 155.211 64.2747 156.291 63.7467C158.139 62.7867 160.491 62.1267 163.347 61.7667V59.5347C163.347 58.5987 163.059 57.8427 162.483 57.2667C162.147 56.9307 161.751 56.6907 161.295 56.5467C160.863 56.4027 160.395 56.3307 159.891 56.3307C158.931 56.3307 158.115 56.5227 157.443 56.9067C157.035 57.1707 156.711 57.4347 156.471 57.6987C156.231 57.9387 156.111 58.2147 156.111 58.5267V58.7067C156.111 59.8827 155.595 60.4707 154.563 60.4707C153.627 60.4707 153.159 59.9307 153.159 58.8507C153.159 57.7227 153.903 56.8107 155.391 56.1147ZM163.347 63.1347C161.235 63.3507 159.279 63.9507 157.479 64.9347C155.847 65.8467 155.031 67.0107 155.031 68.4267C155.031 69.1947 155.343 69.8187 155.967 70.2987C156.591 70.7547 157.371 70.9827 158.307 70.9827C159.171 70.9827 160.071 70.8147 161.007 70.4787C161.775 70.2147 162.555 69.7587 163.347 69.1107V63.1347ZM182.881 56.6547C182.881 57.9027 182.329 58.5267 181.225 58.5267C180.769 58.5267 180.265 58.3227 179.713 57.9147C179.305 57.5787 178.861 57.4107 178.381 57.4107C177.757 57.4107 176.977 57.7707 176.041 58.4907C175.297 59.0667 174.577 59.7267 173.881 60.4707V69.1827C173.881 69.8547 174.001 70.2987 174.241 70.5147C174.505 70.7547 175.165 70.8747 176.221 70.8747V72.0267H169.381V70.8747C170.005 70.8747 170.485 70.8267 170.821 70.7307C171.157 70.6347 171.385 70.4907 171.505 70.2987C171.625 70.1067 171.685 69.8067 171.685 69.3987V58.8867C171.685 58.4067 171.601 58.0827 171.433 57.9147C171.337 57.8187 171.133 57.7107 170.821 57.5907C170.485 57.5187 170.077 57.4827 169.597 57.4827C169.549 57.3627 169.513 57.2427 169.489 57.1227C169.465 57.0027 169.429 56.8827 169.381 56.7627C170.149 56.4507 170.905 56.1507 171.649 55.8627C172.393 55.5507 173.137 55.2387 173.881 54.9267V58.6347C174.457 58.0827 175.033 57.5787 175.609 57.1227C176.185 56.6667 176.749 56.2827 177.301 55.9707C178.501 55.2747 179.665 54.9267 180.793 54.9267C182.185 54.9267 182.881 55.5027 182.881 56.6547ZM199.514 67.7067C199.634 67.8027 199.754 67.8987 199.874 67.9947C200.018 68.0907 200.15 68.1867 200.27 68.2827C199.694 69.1467 199.058 69.8667 198.362 70.4427C197.666 71.0187 196.922 71.4987 196.13 71.8827C195.05 72.4107 193.886 72.6747 192.638 72.6747C190.262 72.6747 188.318 71.9187 186.806 70.4067C185.198 68.7987 184.394 66.6267 184.394 63.8907C184.394 61.2507 185.162 59.1267 186.698 57.5187C188.21 55.8627 190.13 55.0347 192.458 55.0347C194.786 55.0347 196.622 55.7067 197.966 57.0507C199.406 58.4187 200.126 60.3987 200.126 62.9907C197.894 63.0627 195.698 63.1467 193.538 63.2427C191.378 63.3147 189.17 63.3867 186.914 63.4587C186.914 63.5547 186.902 63.6507 186.878 63.7467C186.878 63.8187 186.878 63.9027 186.878 63.9987C186.878 65.0067 187.01 65.9187 187.274 66.7347C187.562 67.5507 187.97 68.2827 188.498 68.9307C189.602 70.3707 191.15 71.0907 193.142 71.0907C194.198 71.0907 195.302 70.8147 196.454 70.2627C196.982 69.9507 197.498 69.5907 198.002 69.1827C198.53 68.7507 199.034 68.2587 199.514 67.7067ZM186.986 62.0907C188.786 62.0427 190.562 61.9827 192.314 61.9107C194.066 61.8387 195.842 61.7787 197.642 61.7307C197.618 60.1467 197.126 58.8747 196.166 57.9147C195.182 56.8587 193.946 56.3307 192.458 56.3307C191.018 56.3307 189.758 56.9067 188.678 58.0587C187.67 59.1147 187.106 60.4587 186.986 62.0907ZM211.654 49.5627C211.126 49.5627 210.622 49.3947 210.142 49.0587C209.806 48.8187 209.554 48.6867 209.386 48.6627C209.218 48.6147 209.038 48.5907 208.846 48.5907C208.39 48.5907 207.994 49.0467 207.658 49.9587C207.538 50.2707 207.466 50.5947 207.442 50.9307C207.418 51.2667 207.406 51.6267 207.406 52.0107V55.6467H211.33V57.0147H207.406V68.9667C207.406 69.9027 207.778 70.4787 208.522 70.6947C209.002 70.8147 209.806 70.8747 210.934 70.8747V72.0267H202.222V70.8747C202.846 70.8747 203.35 70.8387 203.734 70.7667C204.118 70.6947 204.418 70.5987 204.634 70.4787C204.85 70.3587 204.994 70.1787 205.066 69.9387C205.138 69.6747 205.174 69.3507 205.174 68.9667V57.0147H202.258V55.6467H205.174V53.4147C205.174 51.5427 205.666 49.9347 206.65 48.5907C207.754 47.0787 209.158 46.3227 210.862 46.3227C211.486 46.3227 212.002 46.4667 212.41 46.7547C212.866 47.0667 213.094 47.5227 213.094 48.1227C213.094 48.5307 212.938 48.8787 212.626 49.1667C212.314 49.4307 211.99 49.5627 211.654 49.5627ZM217.371 56.1147C218.811 55.4427 220.467 55.1067 222.339 55.1067C223.851 55.1067 225.075 55.5027 226.011 56.2947C227.019 57.2067 227.523 58.4787 227.523 60.1107V69.4347C227.523 69.5547 227.523 69.6987 227.523 69.8667C227.547 70.0347 227.571 70.2027 227.595 70.3707C227.643 70.5387 227.703 70.6827 227.775 70.8027C227.871 70.9227 227.979 70.9827 228.099 70.9827C228.459 70.9827 228.975 70.7187 229.647 70.1907L230.079 70.7307C229.023 72.0027 228.087 72.6387 227.271 72.6387C226.215 72.6387 225.579 71.9667 225.363 70.6227C223.875 71.9667 221.979 72.6387 219.675 72.6387C218.883 72.6387 218.163 72.5547 217.515 72.3867C216.891 72.2187 216.363 71.9547 215.931 71.5947C215.043 70.8507 214.599 69.8067 214.599 68.4627C214.599 67.4547 214.935 66.5547 215.607 65.7627C216.303 64.9467 217.191 64.2747 218.271 63.7467C220.119 62.7867 222.471 62.1267 225.327 61.7667V59.5347C225.327 58.5987 225.039 57.8427 224.463 57.2667C224.127 56.9307 223.731 56.6907 223.275 56.5467C222.843 56.4027 222.375 56.3307 221.871 56.3307C220.911 56.3307 220.095 56.5227 219.423 56.9067C219.015 57.1707 218.691 57.4347 218.451 57.6987C218.211 57.9387 218.091 58.2147 218.091 58.5267V58.7067C218.091 59.8827 217.575 60.4707 216.543 60.4707C215.607 60.4707 215.139 59.9307 215.139 58.8507C215.139 57.7227 215.883 56.8107 217.371 56.1147ZM225.327 63.1347C223.215 63.3507 221.259 63.9507 219.459 64.9347C217.827 65.8467 217.011 67.0107 217.011 68.4267C217.011 69.1947 217.323 69.8187 217.947 70.2987C218.571 70.7547 219.351 70.9827 220.287 70.9827C221.151 70.9827 222.051 70.8147 222.987 70.4787C223.755 70.2147 224.535 69.7587 225.327 69.1107V63.1347ZM245.509 67.8867C245.509 68.8707 245.233 69.7467 244.681 70.5147C244.561 70.6347 244.441 70.7547 244.321 70.8747C244.225 70.9947 244.117 71.1147 243.997 71.2347C242.917 72.1707 241.453 72.6387 239.605 72.6387C238.333 72.6387 237.229 72.4347 236.293 72.0267C236.173 71.9787 236.053 71.9427 235.933 71.9187C235.837 71.9187 235.729 71.9187 235.609 71.9187H235.249C234.985 72.0387 234.733 72.1347 234.493 72.2067C234.253 72.3027 234.001 72.3987 233.737 72.4947C233.401 71.5827 233.053 70.6947 232.693 69.8307C232.333 68.9427 231.985 68.0427 231.649 67.1307C231.745 67.0587 231.829 66.9867 231.901 66.9147C231.997 66.8427 232.105 66.7827 232.225 66.7347C233.257 68.1747 234.241 69.2307 235.177 69.9027C236.665 70.8627 238.129 71.3427 239.569 71.3427C240.697 71.3427 241.645 70.9947 242.413 70.2987C243.037 69.6747 243.349 68.9187 243.349 68.0307C243.349 67.4547 243.121 66.9387 242.665 66.4827C242.569 66.4107 242.449 66.3267 242.305 66.2307C242.161 66.1347 241.993 66.0267 241.801 65.9067C241.489 65.7147 241.081 65.5227 240.577 65.3307C240.073 65.1147 239.461 64.8867 238.741 64.6467C237.613 64.2627 236.677 63.9147 235.933 63.6027C235.189 63.2667 234.625 62.9427 234.241 62.6307C232.801 61.7427 232.081 60.5667 232.081 59.1027C232.081 57.7587 232.717 56.6907 233.989 55.8987C234.949 55.2987 236.149 54.9987 237.589 54.9987C238.837 54.9987 240.121 55.2387 241.441 55.7187C241.633 55.6707 241.837 55.5867 242.053 55.4667C242.269 55.3227 242.509 55.1547 242.773 54.9627C243.109 55.8267 243.445 56.7027 243.781 57.5907C244.117 58.4547 244.453 59.3307 244.789 60.2187C244.669 60.2667 244.549 60.3267 244.429 60.3987C244.333 60.4707 244.225 60.5307 244.105 60.5787C243.505 59.4267 242.701 58.4907 241.693 57.7707C240.205 56.7867 238.837 56.2947 237.589 56.2947C236.677 56.2947 235.957 56.4507 235.429 56.7627C234.637 57.1947 234.241 57.9387 234.241 58.9947C234.241 59.6667 234.589 60.2427 235.285 60.7227C235.381 60.7707 235.477 60.8187 235.573 60.8667C235.669 60.9147 235.777 60.9627 235.897 61.0107C236.233 61.2027 236.653 61.4067 237.157 61.6227C237.661 61.8387 238.225 62.0427 238.849 62.2347C240.145 62.6427 241.213 63.0507 242.053 63.4587C242.917 63.8427 243.577 64.2027 244.033 64.5387C245.017 65.3307 245.509 66.4467 245.509 67.8867Z" fill="white"/>
</g>
<g filter="url(#filter2_d_7_10)">
<path d="M76.5012 91.4787L81.4875 94.3891L81.5148 88.6157L76.5012 91.4787ZM296.499 92.5213L291.512 89.6109L291.485 95.3843L296.499 92.5213ZM80.9988 92L291.996 93L292.001 92L81.0035 91L80.9988 92Z" fill="white"/>
</g>
</g>
<defs>
<filter id="filter0_d_7_10" x="-4" y="0" width="381" height="132" filterUnits="userSpaceOnUse" color-interpolation-filters="sRGB">
<feFlood flood-opacity="0" result="BackgroundImageFix"/>
<feColorMatrix in="SourceAlpha" type="matrix" values="0 0 0 0 0 0 0 0 0 0 0 0 0 0 0 0 0 0 127 0" result="hardAlpha"/>
<feOffset dy="4"/>
<feGaussianBlur stdDeviation="2"/>
<feComposite in2="hardAlpha" operator="out"/>
<feColorMatrix type="matrix" values="0 0 0 0 0 0 0 0 0 0 0 0 0 0 0 0 0 0 0.25 0"/>
<feBlend mode="normal" in2="BackgroundImageFix" result="effect1_dropShadow_7_10"/>
<feBlend mode="normal" in="SourceGraphic" in2="effect1_dropShadow_7_10" result="shape"/>
</filter>
<filter id="filter1_b_7_10" x="122.69" y="42.3227" width="126.819" height="34.352" filterUnits="userSpaceOnUse" color-interpolation-filters="sRGB">
<feFlood flood-opacity="0" result="BackgroundImageFix"/>
<feGaussianBlur in="BackgroundImageFix" stdDeviation="2"/>
<feComposite in2="SourceAlpha" operator="in" result="effect1_backgroundBlur_7_10"/>
<feBlend mode="normal" in="SourceGraphic" in2="effect1_backgroundBlur_7_10" result="shape"/>
</filter>
<filter id="filter2_d_7_10" x="72.5012" y="88.6157" width="227.998" height="14.7687" filterUnits="userSpaceOnUse" color-interpolation-filters="sRGB">
<feFlood flood-opacity="0" result="BackgroundImageFix"/>
<feColorMatrix in="SourceAlpha" type="matrix" values="0 0 0 0 0 0 0 0 0 0 0 0 0 0 0 0 0 0 127 0" result="hardAlpha"/>
<feOffset dy="4"/>
<feGaussianBlur stdDeviation="2"/>
<feComposite in2="hardAlpha" operator="out"/>
<feColorMatrix type="matrix" values="0 0 0 0 0 0 0 0 0 0 0 0 0 0 0 0 0 0 0.25 0"/>
<feBlend mode="normal" in2="BackgroundImageFix" result="effect1_dropShadow_7_10"/>
<feBlend mode="normal" in="SourceGraphic" in2="effect1_dropShadow_7_10" result="shape"/>
</filter>
</defs>
</svg>
